<?xml version="1.0" standalone="no"?>
<!DOCTYPE svg PUBLIC "-//W3C//DTD SVG 20010904//EN"
 "http://www.w3.org/TR/2001/REC-SVG-20010904/DTD/svg10.dtd">
<svg version="1.0" xmlns="http://www.w3.org/2000/svg"
 width="512.000000pt" height="512.000000pt" viewBox="0 0 512.000000 512.000000"
 preserveAspectRatio="xMidYMid meet">

<g transform="translate(0.000000,512.000000) scale(0.100000,-0.100000)"
fill="#000000" stroke="none">
<path d="M650 4970 l0 -150 -300 0 -300 0 0 -2410 0 -2410 1950 0 1950 0 0
300 0 300 407 0 407 0 -175 177 c-96 98 -193 201 -215 228 -50 62 -134 180
-134 189 0 3 185 6 412 6 l412 0 -160 162 c-88 90 -189 197 -225 238 -324 370
-557 838 -663 1331 -57 262 -59 293 -63 1122 l-4 767 -300 0 -299 0 0 150 0
150 -150 0 -150 0 0 -150 0 -150 -450 0 -450 0 0 150 0 150 -150 0 -150 0 0
-150 0 -150 -450 0 -450 0 0 150 0 150 -150 0 -150 0 0 -150z m0 -600 l0 -150
150 0 150 0 0 150 0 150 450 0 450 0 0 -150 0 -150 150 0 150 0 0 150 0 150
450 0 450 0 0 -150 0 -150 150 0 150 0 0 150 0 150 150 0 150 0 0 -537 c0
-296 5 -599 10 -673 49 -634 274 -1233 652 -1732 l59 -78 -1605 0 -1605 0 -84
98 c-385 446 -614 956 -703 1563 -14 94 -18 224 -21 737 l-5 622 151 0 151 0
0 -150z m-142 -2495 c118 -198 244 -366 408 -547 l116 -128 1429 0 1429 0 28
-51 c15 -28 55 -94 90 -147 34 -53 62 -97 62 -99 0 -2 -722 -3 -1604 -3
l-1604 0 -57 68 c-261 312 -418 701 -449 1117 l-6 80 61 -115 c33 -63 77 -142
97 -175z m-81 -900 c71 -106 131 -181 232 -293 l75 -82 1458 0 1458 0 0 -150
0 -150 -1650 0 -1650 0 0 392 c0 222 4 388 9 383 4 -6 35 -50 68 -100z"/>
<path d="M800 3460 l0 -150 300 0 300 0 0 150 0 150 -300 0 -300 0 0 -150z"/>
<path d="M1700 3460 l0 -150 300 0 300 0 0 150 0 150 -300 0 -300 0 0 -150z"/>
<path d="M2600 3460 l0 -150 300 0 300 0 0 150 0 150 -300 0 -300 0 0 -150z"/>
<path d="M950 2860 l0 -150 300 0 300 0 0 150 0 150 -300 0 -300 0 0 -150z"/>
<path d="M1850 2860 l0 -150 300 0 300 0 0 150 0 150 -300 0 -300 0 0 -150z"/>
<path d="M2750 2860 l0 -150 300 0 300 0 0 150 0 150 -300 0 -300 0 0 -150z"/>
<path d="M1100 2260 l0 -150 300 0 300 0 0 150 0 150 -300 0 -300 0 0 -150z"/>
<path d="M2000 2260 l0 -150 300 0 300 0 0 150 0 150 -300 0 -300 0 0 -150z"/>
<path d="M2900 2260 l0 -150 300 0 300 0 0 150 0 150 -300 0 -300 0 0 -150z"/>
</g>
</svg>
