<?xml version="1.0" standalone="no"?>
<!DOCTYPE svg PUBLIC "-//W3C//DTD SVG 20010904//EN"
 "http://www.w3.org/TR/2001/REC-SVG-20010904/DTD/svg10.dtd">
<svg version="1.0" xmlns="http://www.w3.org/2000/svg"
 width="512.000000pt" height="512.000000pt" viewBox="0 0 512.000000 512.000000"
 preserveAspectRatio="xMidYMid meet">

<g transform="translate(0.000000,512.000000) scale(0.100000,-0.100000)"
fill="#000000" stroke="none">
<path d="M194 4320 c-99 -31 -180 -130 -191 -232 -15 -146 94 -280 239 -295
146 -15 280 94 295 239 15 152 -98 285 -250 294 -34 2 -76 -1 -93 -6z"/>
<path d="M1365 4241 c-68 -30 -125 -113 -125 -181 0 -38 24 -95 56 -130 69
-76 -88 -71 1904 -68 l1785 3 38 24 c21 13 50 42 65 64 23 34 27 52 27 107 0
55 -4 73 -27 107 -15 22 -44 51 -65 64 l-38 24 -1790 2 c-1715 3 -1792 2
-1830 -16z"/>
<path d="M194 2820 c-99 -31 -180 -130 -191 -232 -15 -146 94 -280 239 -295
146 -15 280 94 295 239 15 152 -98 285 -250 294 -34 2 -76 -1 -93 -6z"/>
<path d="M1365 2741 c-68 -30 -125 -113 -125 -181 0 -38 24 -95 56 -130 69
-76 -88 -71 1904 -68 l1785 3 38 24 c21 13 50 42 65 64 23 34 27 52 27 107 0
55 -4 73 -27 107 -15 22 -44 51 -65 64 l-38 24 -1790 2 c-1715 3 -1792 2
-1830 -16z"/>
<path d="M194 1320 c-99 -31 -180 -130 -191 -232 -15 -146 94 -280 239 -295
146 -15 280 94 295 239 15 152 -98 285 -250 294 -34 2 -76 -1 -93 -6z"/>
<path d="M1365 1241 c-68 -30 -125 -113 -125 -181 0 -38 24 -95 56 -130 69
-76 -88 -71 1904 -68 l1785 3 38 24 c21 13 50 42 65 64 23 34 27 52 27 107 0
55 -4 73 -27 107 -15 22 -44 51 -65 64 l-38 24 -1790 2 c-1715 3 -1792 2
-1830 -16z"/>
</g>
</svg>
