<?xml version="1.0" standalone="no"?>
<!DOCTYPE svg PUBLIC "-//W3C//DTD SVG 20010904//EN"
 "http://www.w3.org/TR/2001/REC-SVG-20010904/DTD/svg10.dtd">
<svg version="1.0" xmlns="http://www.w3.org/2000/svg"
 width="512.000000pt" height="512.000000pt" viewBox="0 0 512.000000 512.000000"
 preserveAspectRatio="xMidYMid meet">

<g transform="translate(0.000000,512.000000) scale(0.100000,-0.100000)"
fill="#000000" stroke="none">
<path d="M1485 4855 c-135 -28 -310 -134 -395 -240 -18 -22 -47 -69 -64 -105
-28 -58 -31 -75 -31 -155 l0 -90 59 -102 58 -103 -77 -82 c-202 -214 -362
-484 -450 -758 -20 -63 -41 -125 -46 -137 -8 -22 -14 -23 -126 -23 -104 0
-124 -3 -170 -24 -140 -66 -242 -267 -242 -476 0 -209 102 -410 242 -476 46
-21 66 -24 170 -24 112 0 118 -1 126 -23 5 -12 26 -74 46 -137 88 -274 248
-544 450 -758 l77 -82 -58 -103 -59 -102 0 -90 c0 -80 3 -97 31 -155 59 -123
154 -214 299 -286 159 -79 316 -92 435 -38 74 34 102 63 167 172 51 86 58 94
82 89 14 -2 71 -14 126 -25 152 -32 254 -42 425 -42 171 0 273 10 425 42 55
11 112 23 126 25 24 5 31 -3 82 -89 65 -109 93 -138 167 -172 119 -54 276 -41
435 38 145 72 240 163 299 286 28 58 31 75 31 155 l0 90 -59 102 -58 103 77
82 c202 214 362 484 450 758 20 63 41 125 46 138 8 21 14 22 126 22 104 0 124
3 170 24 177 83 278 352 228 613 -29 153 -121 289 -230 339 -43 21 -65 24
-168 24 -112 0 -118 1 -126 23 -5 12 -26 74 -46 137 -88 274 -248 544 -450
758 l-77 82 58 103 59 102 0 90 c0 80 -3 97 -31 155 -59 123 -154 214 -299
286 -159 79 -316 92 -435 38 -74 -34 -102 -63 -167 -172 -51 -86 -58 -94 -82
-89 -14 2 -71 14 -126 25 -152 32 -254 42 -425 42 -171 0 -273 -10 -425 -42
-55 -11 -112 -23 -126 -25 -24 -5 -31 3 -82 89 -30 51 -68 105 -84 120 -76 72
-220 101 -358 73z m198 -198 c25 -11 45 -37 97 -128 76 -132 101 -165 135
-173 14 -4 80 8 161 29 327 85 641 85 968 0 81 -21 147 -33 161 -29 34 8 59
41 135 173 73 128 90 141 184 141 153 0 340 -116 398 -248 28 -62 21 -88 -56
-220 -70 -121 -82 -149 -72 -184 3 -13 52 -70 107 -128 252 -261 396 -514 490
-865 42 -156 40 -155 243 -155 l159 0 42 -43 c124 -124 115 -441 -16 -551 -30
-26 -33 -26 -182 -26 -198 0 -205 -4 -236 -122 -97 -370 -239 -625 -506 -906
-103 -110 -107 -115 -102 -150 3 -21 37 -93 76 -162 39 -68 71 -136 71 -150 0
-45 -49 -127 -107 -180 -80 -73 -185 -121 -281 -127 -120 -8 -134 1 -212 138
-106 185 -118 193 -235 159 -359 -105 -731 -105 -1090 0 -117 34 -129 26 -235
-159 -78 -137 -92 -146 -212 -138 -96 6 -201 54 -281 127 -58 53 -107 135
-107 180 0 14 32 82 71 150 39 69 73 141 76 162 5 35 1 40 -102 150 -267 281
-409 536 -506 906 -31 118 -38 122 -236 122 l-152 0 -35 31 c-93 81 -126 273
-76 441 13 46 67 119 100 135 17 9 76 13 175 13 193 0 192 0 234 155 94 351
238 604 490 865 55 58 104 115 107 128 10 35 -2 63 -72 184 -36 62 -68 127
-71 144 -11 67 67 180 170 246 106 68 253 97 330 65z"/>
<path d="M2440 3749 c-267 -27 -531 -152 -722 -343 -359 -359 -454 -901 -238
-1353 64 -136 135 -236 238 -339 196 -196 455 -317 735 -343 654 -62 1235 424
1296 1082 46 485 -217 957 -656 1176 -198 99 -435 142 -653 120z m365 -217
c377 -106 627 -360 732 -742 13 -50 17 -103 17 -230 0 -171 -7 -219 -55 -348
-82 -224 -251 -419 -461 -531 -168 -91 -271 -115 -478 -115 -171 0 -219 7
-348 55 -224 82 -419 251 -531 461 -91 168 -115 271 -115 478 0 171 7 218 55
350 122 334 433 586 794 643 72 12 321 -2 390 -21z"/>
</g>
</svg>
