<?xml version="1.0" standalone="no"?>
<!DOCTYPE svg PUBLIC "-//W3C//DTD SVG 20010904//EN"
 "http://www.w3.org/TR/2001/REC-SVG-20010904/DTD/svg10.dtd">
<svg version="1.0" xmlns="http://www.w3.org/2000/svg"
 width="512.000000pt" height="512.000000pt" viewBox="0 0 512.000000 512.000000"
 preserveAspectRatio="xMidYMid meet">

<g transform="translate(0.000000,512.000000) scale(0.100000,-0.100000)"
fill="#000000" stroke="none">
<path d="M2370 5113 c-468 -44 -862 -180 -1220 -419 -384 -257 -683 -597 -885
-1009 -168 -340 -248 -661 -262 -1040 -15 -426 73 -832 263 -1214 133 -269
271 -459 488 -677 221 -220 412 -357 681 -489 188 -92 309 -137 500 -185 500
-126 1002 -102 1490 71 150 53 408 183 540 271 560 374 952 942 1095 1588 33
150 50 291 57 465 15 426 -73 832 -263 1214 -124 250 -263 447 -458 648 -214
222 -430 379 -711 518 -296 146 -572 225 -900 255 -102 9 -333 11 -415 3z
m545 -342 c634 -107 1170 -456 1523 -995 170 -258 286 -563 339 -891 24 -153
24 -497 0 -650 -108 -668 -474 -1222 -1042 -1580 -243 -153 -537 -261 -850
-312 -154 -24 -497 -24 -650 1 -657 107 -1198 456 -1557 1006 -168 257 -281
557 -335 885 -24 153 -24 497 0 650 81 496 290 909 636 1256 377 377 863 604
1401 653 108 10 418 -4 535 -23z"/>
<path d="M2470 4328 c-31 -16 -52 -36 -69 -66 l-23 -43 12 -847 c10 -761 13
-851 28 -882 13 -26 146 -137 540 -447 288 -226 534 -414 545 -417 12 -3 39
-6 60 -6 130 0 200 162 113 259 -14 16 -882 704 -953 756 -2 1 -8 354 -13 786
-12 877 -9 848 -80 895 -55 37 -105 40 -160 12z"/>
</g>
</svg>
